<svg>
	<symbol viewBox="0 0 28 25" id="icon-features-top-item-1">
		<path d="M2.78 2.78v19.44H25V2.78H2.78ZM1.38 0h25a1.39 1.39 0 0 1 1.4 1.39V23.6a1.39 1.39 0 0 1-1.4 1.39h-25A1.39 1.39 0 0 1 0 23.61V1.4A1.39 1.39 0 0 1 1.39 0Zm16.39 9.43-2.5-2.49h6.95v6.95l-2.49-2.5-5.36 5.38-2.95-2.95-3.93 3.93-1.96-1.97 5.89-5.89 2.95 2.95 3.4-3.4Z" />
	</symbol>

	<symbol viewBox="0 0 25 25" id="icon-features-top-item-2">
		<path d="M11.57 23.96a1.04 1.04 0 0 1-1.03-1.16l.8-7.38H5.21a1.04 1.04 0 0 1-.87-1.63L12.56 1.5a1.04 1.04 0 0 1 1.73.01c.12.2.18.41.17.64l-.8 7.43h6.13a1.04 1.04 0 0 1 .87 1.63L12.44 23.5a1.04 1.04 0 0 1-.87.46ZM7.16 13.33h5.34a1.04 1.04 0 0 1 1.03 1.16l-.47 4.32 4.78-7.14H12.5a1.04 1.04 0 0 1-1.04-1.16l.47-4.32-4.77 7.14Z" />
	</symbol>

	<symbol viewBox="0 0 25 25" id="icon-features-top-item-3">
		<path d="M13.4 22.92c-.5 0-.98-.2-1.34-.56L5.4 15.68c-.18-.17-.28-.4-.3-.64L4.16 5.3A1.04 1.04 0 0 1 5.3 4.17l9.74.91c.24.03.47.13.64.3l6.68 6.68a1.9 1.9 0 0 1 0 2.68l-7.62 7.62a1.9 1.9 0 0 1-1.33.56Zm-6.24-8.45 6.25 6.25 7.34-7.34-6.25-6.26-8.14-.76.8 8.1Z" />
		<path d="M10.94 12.5a1.56 1.56 0 1 0 0-3.13 1.56 1.56 0 0 0 0 3.13Z" />
	</symbol>
</svg>